<?xml version="1.0" encoding="UTF-8" standalone="no"?>
<!-- Created with Inkscape (http://www.inkscape.org/) -->

<svg
   width="71.930267mm"
   height="75.601852mm"
   viewBox="0 0 71.930267 75.601852"
   version="1.1"
   id="svg1"
   xmlns="http://www.w3.org/2000/svg"
   xmlns:svg="http://www.w3.org/2000/svg">
  <defs
     id="defs1" />
  <g
     id="layer1">
    <path
       style="fill:none;stroke:#000000;stroke-width:2.4862;stroke-dasharray:none;stroke-opacity:1"
       id="path2"
       d="M 14.020669,35.855316 4.8448586,25.664546 3.4114563,12.026634 10.267973,0.1507986 22.795452,-5.4267946 36.208823,-2.5756947 45.384634,7.6150751 46.818036,21.252987 39.961519,33.128823 27.43404,38.706416 Z"
       transform="matrix(1.6002694,0.16621261,-0.16621261,1.6002694,-1.4594795,6.9983609)" />
    <path
       style="fill:none;stroke:#000000;stroke-width:4;stroke-dasharray:none;stroke-opacity:1"
       id="path3"
       d="M 53.369204,36.945177 42.84916,64.350827 13.533966,62.814483 5.9362226,34.45932 30.555754,18.471209 Z"
       transform="matrix(0.65122694,-0.03368613,0.03368613,0.65122694,15.018371,10.827837)" />
    <path
       style="fill:none;stroke:#000000;stroke-width:4;stroke-dasharray:none;stroke-opacity:1"
       d="m 1.1368815,26.251627 19.3269855,7.234701 v 0 l -0.103353,-0.103352"
       id="path4" />
    <path
       style="fill:none;stroke:#000000;stroke-width:4;stroke-dasharray:none;stroke-opacity:1"
       d="M 35.553385,22.427571 35.863445,2.3771159"
       id="path5" />
    <path
       style="fill:none;stroke:#000000;stroke-width:4;stroke-dasharray:none;stroke-opacity:1"
       d="M 57.877603,67.07601 45.268554,51.26302"
       id="path7" />
    <path
       style="fill:none;stroke:#000000;stroke-width:4;stroke-dasharray:none;stroke-opacity:1"
       d="M 26.148274,51.366374 15.606282,66.76595"
       id="path8" />
    <path
       style="fill:none;stroke:#000000;stroke-width:4;stroke-dasharray:none;stroke-opacity:1"
       d="M 50.746257,33.072916 70.073241,26.665039"
       id="path9" />
    <text
       xml:space="preserve"
       style="font-size:18.1758px;font-family:'DejaVu Sans Mono';-inkscape-font-specification:'DejaVu Sans Mono';text-align:start;writing-mode:lr-tb;direction:ltr;text-anchor:start;fill:#000000;fill-opacity:1;stroke:none;stroke-width:22.8987;stroke-dasharray:none;stroke-opacity:1"
       x="30.062868"
       y="45.343216"
       id="text9"><tspan
         id="tspan9"
         style="fill:#000000;fill-opacity:1;stroke:none;stroke-width:22.8987"
         x="30.062868"
         y="45.343216">2</tspan></text>
  </g>
</svg>
